<mxfile host="app.diagrams.net" modified="2023-07-04T15:14:07.996Z" agent="Mozilla/5.0 (Windows NT 10.0; Win64; x64) AppleWebKit/537.36 (KHTML, like Gecko) Chrome/114.0.0.0 Safari/537.36 Edg/114.0.1823.67" etag="B6q8AEVfCapYMawioEeY" version="21.5.2" type="github">
  <diagram name="第 1 页" id="ArTjO0RQta9cAqFAFkaD">
    <mxGraphModel dx="2019" dy="1155" grid="1" gridSize="10" guides="1" tooltips="1" connect="1" arrows="1" fold="1" page="1" pageScale="1" pageWidth="827" pageHeight="1169" math="0" shadow="0">
      <root>
        <mxCell id="0" />
        <mxCell id="1" parent="0" />
        <mxCell id="Cvs36pEffpM8yTneI7ga-1" value="" style="rounded=0;whiteSpace=wrap;html=1;" vertex="1" parent="1">
          <mxGeometry x="120" y="360" width="640" height="200" as="geometry" />
        </mxCell>
        <mxCell id="Cvs36pEffpM8yTneI7ga-2" value="" style="rounded=0;whiteSpace=wrap;html=1;" vertex="1" parent="1">
          <mxGeometry x="120" y="585" width="640" height="200" as="geometry" />
        </mxCell>
        <mxCell id="Cvs36pEffpM8yTneI7ga-3" value="&lt;font style=&quot;font-size: 18px;&quot;&gt;time axis&lt;/font&gt;" style="text;html=1;strokeColor=none;fillColor=none;align=center;verticalAlign=middle;whiteSpace=wrap;rounded=0;" vertex="1" parent="1">
          <mxGeometry x="620" y="520" width="120" height="40" as="geometry" />
        </mxCell>
        <mxCell id="Cvs36pEffpM8yTneI7ga-4" value="&lt;font style=&quot;font-size: 18px;&quot;&gt;time axis&lt;/font&gt;" style="text;html=1;strokeColor=none;fillColor=none;align=center;verticalAlign=middle;whiteSpace=wrap;rounded=0;" vertex="1" parent="1">
          <mxGeometry x="620" y="745" width="120" height="40" as="geometry" />
        </mxCell>
        <mxCell id="Cvs36pEffpM8yTneI7ga-5" value="" style="endArrow=classic;html=1;rounded=0;endSize=6;startSize=6;strokeWidth=2;" edge="1" parent="1">
          <mxGeometry width="50" height="50" relative="1" as="geometry">
            <mxPoint x="160" y="500" as="sourcePoint" />
            <mxPoint x="720" y="500" as="targetPoint" />
          </mxGeometry>
        </mxCell>
        <mxCell id="Cvs36pEffpM8yTneI7ga-7" value="" style="endArrow=none;html=1;rounded=0;strokeWidth=2;" edge="1" parent="1">
          <mxGeometry width="50" height="50" relative="1" as="geometry">
            <mxPoint x="200" y="520" as="sourcePoint" />
            <mxPoint x="200" y="480" as="targetPoint" />
          </mxGeometry>
        </mxCell>
        <mxCell id="Cvs36pEffpM8yTneI7ga-8" value="" style="endArrow=none;html=1;rounded=0;strokeWidth=2;" edge="1" parent="1">
          <mxGeometry width="50" height="50" relative="1" as="geometry">
            <mxPoint x="440" y="520" as="sourcePoint" />
            <mxPoint x="440" y="480" as="targetPoint" />
          </mxGeometry>
        </mxCell>
        <mxCell id="Cvs36pEffpM8yTneI7ga-9" value="" style="endArrow=none;html=1;rounded=0;strokeWidth=2;" edge="1" parent="1">
          <mxGeometry width="50" height="50" relative="1" as="geometry">
            <mxPoint x="510" y="520" as="sourcePoint" />
            <mxPoint x="510" y="480" as="targetPoint" />
          </mxGeometry>
        </mxCell>
        <mxCell id="Cvs36pEffpM8yTneI7ga-10" value="" style="rounded=0;whiteSpace=wrap;html=1;" vertex="1" parent="1">
          <mxGeometry x="290" y="370" width="450" height="80" as="geometry" />
        </mxCell>
        <mxCell id="Cvs36pEffpM8yTneI7ga-11" value="&lt;font style=&quot;font-size: 14px;&quot;&gt;checkpointing&lt;/font&gt;" style="text;html=1;strokeColor=none;fillColor=none;align=center;verticalAlign=middle;whiteSpace=wrap;rounded=0;" vertex="1" parent="1">
          <mxGeometry x="260" y="460" width="120" height="40" as="geometry" />
        </mxCell>
        <mxCell id="Cvs36pEffpM8yTneI7ga-12" value="&lt;font style=&quot;font-size: 16px;&quot;&gt;Common Checkpoint Approach&lt;/font&gt;" style="text;html=1;strokeColor=none;fillColor=none;align=left;verticalAlign=middle;whiteSpace=wrap;rounded=0;" vertex="1" parent="1">
          <mxGeometry x="130" y="360" width="160" height="50" as="geometry" />
        </mxCell>
        <mxCell id="Cvs36pEffpM8yTneI7ga-13" value="&lt;font style=&quot;font-size: 14px;&quot;&gt;interval&lt;/font&gt;" style="text;html=1;strokeColor=none;fillColor=none;align=center;verticalAlign=middle;whiteSpace=wrap;rounded=0;" vertex="1" parent="1">
          <mxGeometry x="435" y="460" width="80" height="40" as="geometry" />
        </mxCell>
        <mxCell id="Cvs36pEffpM8yTneI7ga-14" value="&lt;font style=&quot;font-size: 14px;&quot;&gt;checkpointing&lt;/font&gt;" style="text;html=1;strokeColor=none;fillColor=none;align=center;verticalAlign=middle;whiteSpace=wrap;rounded=0;" vertex="1" parent="1">
          <mxGeometry x="560" y="460" width="120" height="40" as="geometry" />
        </mxCell>
        <mxCell id="Cvs36pEffpM8yTneI7ga-15" value="" style="endArrow=classic;html=1;rounded=0;exitX=0;exitY=0.5;exitDx=0;exitDy=0;" edge="1" parent="1" source="Cvs36pEffpM8yTneI7ga-11">
          <mxGeometry width="50" height="50" relative="1" as="geometry">
            <mxPoint x="30" y="480" as="sourcePoint" />
            <mxPoint x="205" y="480" as="targetPoint" />
          </mxGeometry>
        </mxCell>
        <mxCell id="Cvs36pEffpM8yTneI7ga-16" value="" style="endArrow=classic;html=1;rounded=0;exitX=1;exitY=0.5;exitDx=0;exitDy=0;" edge="1" parent="1" source="Cvs36pEffpM8yTneI7ga-11">
          <mxGeometry width="50" height="50" relative="1" as="geometry">
            <mxPoint x="380" y="470" as="sourcePoint" />
            <mxPoint x="435" y="480" as="targetPoint" />
          </mxGeometry>
        </mxCell>
        <mxCell id="Cvs36pEffpM8yTneI7ga-17" value="" style="endArrow=classic;html=1;rounded=0;exitX=0;exitY=0.5;exitDx=0;exitDy=0;" edge="1" parent="1" source="Cvs36pEffpM8yTneI7ga-14">
          <mxGeometry width="50" height="50" relative="1" as="geometry">
            <mxPoint x="550" y="479.5" as="sourcePoint" />
            <mxPoint x="515" y="480" as="targetPoint" />
          </mxGeometry>
        </mxCell>
        <mxCell id="Cvs36pEffpM8yTneI7ga-19" value="&lt;span style=&quot;font-size: 14px;&quot;&gt;interval :&amp;nbsp; time break between checkpointing&lt;/span&gt;" style="text;html=1;strokeColor=none;fillColor=none;align=left;verticalAlign=middle;whiteSpace=wrap;rounded=0;" vertex="1" parent="1">
          <mxGeometry x="295" y="380" width="285" height="20" as="geometry" />
        </mxCell>
        <mxCell id="Cvs36pEffpM8yTneI7ga-20" value="&lt;span style=&quot;font-size: 14px;&quot;&gt;checkpointing :&amp;nbsp; copy all dirty memory, sync&lt;br&gt;&lt;span style=&quot;white-space: pre;&quot;&gt;&#x9;&lt;/span&gt;&lt;span style=&quot;white-space: pre;&quot;&gt;&#x9;&lt;/span&gt;&lt;span style=&quot;white-space: pre;&quot;&gt;&#x9;&lt;/span&gt;&amp;nbsp; memory and CPU states&lt;/span&gt;" style="text;html=1;strokeColor=none;fillColor=none;align=left;verticalAlign=middle;whiteSpace=wrap;rounded=0;" vertex="1" parent="1">
          <mxGeometry x="295" y="400" width="280" height="40" as="geometry" />
        </mxCell>
        <mxCell id="Cvs36pEffpM8yTneI7ga-24" value="" style="endArrow=none;html=1;rounded=0;strokeWidth=6;strokeColor=#FF0000;" edge="1" parent="1">
          <mxGeometry width="50" height="50" relative="1" as="geometry">
            <mxPoint x="215" y="530" as="sourcePoint" />
            <mxPoint x="215" y="470" as="targetPoint" />
            <Array as="points">
              <mxPoint x="205" y="530" />
              <mxPoint x="205" y="470" />
            </Array>
          </mxGeometry>
        </mxCell>
        <mxCell id="Cvs36pEffpM8yTneI7ga-25" value="" style="endArrow=none;html=1;rounded=0;strokeWidth=6;strokeColor=#FF0000;" edge="1" parent="1">
          <mxGeometry width="50" height="50" relative="1" as="geometry">
            <mxPoint x="525" y="530" as="sourcePoint" />
            <mxPoint x="525" y="470" as="targetPoint" />
            <Array as="points">
              <mxPoint x="515" y="530" />
              <mxPoint x="515" y="470" />
            </Array>
          </mxGeometry>
        </mxCell>
        <mxCell id="Cvs36pEffpM8yTneI7ga-27" value="" style="endArrow=none;html=1;rounded=0;strokeWidth=6;strokeColor=#FF0000;" edge="1" parent="1">
          <mxGeometry width="50" height="50" relative="1" as="geometry">
            <mxPoint x="425" y="530" as="sourcePoint" />
            <mxPoint x="425" y="470" as="targetPoint" />
            <Array as="points">
              <mxPoint x="435" y="530" />
              <mxPoint x="435" y="470" />
            </Array>
          </mxGeometry>
        </mxCell>
        <mxCell id="Cvs36pEffpM8yTneI7ga-29" value="" style="endArrow=none;html=1;rounded=0;strokeWidth=3;strokeColor=#FF0000;" edge="1" parent="1">
          <mxGeometry width="50" height="50" relative="1" as="geometry">
            <mxPoint x="610" y="400" as="sourcePoint" />
            <mxPoint x="610" y="380" as="targetPoint" />
            <Array as="points">
              <mxPoint x="600" y="400" />
              <mxPoint x="600" y="380" />
            </Array>
          </mxGeometry>
        </mxCell>
        <mxCell id="Cvs36pEffpM8yTneI7ga-30" value="" style="endArrow=none;html=1;rounded=0;strokeWidth=3;strokeColor=#FF0000;" edge="1" parent="1">
          <mxGeometry width="50" height="50" relative="1" as="geometry">
            <mxPoint x="615" y="400" as="sourcePoint" />
            <mxPoint x="615" y="380" as="targetPoint" />
            <Array as="points">
              <mxPoint x="625" y="400" />
              <mxPoint x="625" y="380" />
            </Array>
          </mxGeometry>
        </mxCell>
        <mxCell id="Cvs36pEffpM8yTneI7ga-31" value="&lt;span style=&quot;font-size: 14px;&quot;&gt;:&amp;nbsp; VM paused&lt;/span&gt;" style="text;html=1;strokeColor=none;fillColor=none;align=left;verticalAlign=middle;whiteSpace=wrap;rounded=0;" vertex="1" parent="1">
          <mxGeometry x="630" y="370" width="90" height="40" as="geometry" />
        </mxCell>
        <mxCell id="Cvs36pEffpM8yTneI7ga-32" value="" style="endArrow=none;html=1;rounded=0;strokeWidth=3;strokeColor=#7EA6E0;" edge="1" parent="1">
          <mxGeometry width="50" height="50" relative="1" as="geometry">
            <mxPoint x="610" y="440" as="sourcePoint" />
            <mxPoint x="610" y="420" as="targetPoint" />
            <Array as="points">
              <mxPoint x="600" y="440" />
              <mxPoint x="600" y="420" />
            </Array>
          </mxGeometry>
        </mxCell>
        <mxCell id="Cvs36pEffpM8yTneI7ga-33" value="" style="endArrow=none;html=1;rounded=0;strokeWidth=3;strokeColor=#7EA6E0;" edge="1" parent="1">
          <mxGeometry width="50" height="50" relative="1" as="geometry">
            <mxPoint x="615" y="440" as="sourcePoint" />
            <mxPoint x="615" y="420" as="targetPoint" />
            <Array as="points">
              <mxPoint x="625" y="440" />
              <mxPoint x="625" y="420" />
            </Array>
          </mxGeometry>
        </mxCell>
        <mxCell id="Cvs36pEffpM8yTneI7ga-34" value="&lt;span style=&quot;font-size: 14px;&quot;&gt;:&amp;nbsp; VM running&lt;/span&gt;" style="text;html=1;strokeColor=none;fillColor=none;align=left;verticalAlign=middle;whiteSpace=wrap;rounded=0;" vertex="1" parent="1">
          <mxGeometry x="630" y="410" width="90" height="40" as="geometry" />
        </mxCell>
        <mxCell id="Cvs36pEffpM8yTneI7ga-35" value="" style="endArrow=none;html=1;rounded=0;strokeWidth=6;strokeColor=#7EA6E0;" edge="1" parent="1">
          <mxGeometry width="50" height="50" relative="1" as="geometry">
            <mxPoint x="455" y="530" as="sourcePoint" />
            <mxPoint x="455" y="470" as="targetPoint" />
            <Array as="points">
              <mxPoint x="445" y="530" />
              <mxPoint x="445" y="470" />
            </Array>
          </mxGeometry>
        </mxCell>
        <mxCell id="Cvs36pEffpM8yTneI7ga-36" value="" style="endArrow=none;html=1;rounded=0;strokeWidth=6;strokeColor=#7EA6E0;" edge="1" parent="1">
          <mxGeometry width="50" height="50" relative="1" as="geometry">
            <mxPoint x="495" y="530" as="sourcePoint" />
            <mxPoint x="495" y="470" as="targetPoint" />
            <Array as="points">
              <mxPoint x="505" y="530" />
              <mxPoint x="505" y="470" />
            </Array>
          </mxGeometry>
        </mxCell>
        <mxCell id="Cvs36pEffpM8yTneI7ga-37" value="&lt;font style=&quot;font-size: 16px;&quot;&gt;2-stage Checkpoint Approach&lt;/font&gt;" style="text;html=1;strokeColor=none;fillColor=none;align=left;verticalAlign=middle;whiteSpace=wrap;rounded=0;" vertex="1" parent="1">
          <mxGeometry x="130" y="585" width="160" height="50" as="geometry" />
        </mxCell>
        <mxCell id="Cvs36pEffpM8yTneI7ga-38" value="" style="endArrow=classic;html=1;rounded=0;endSize=6;startSize=6;strokeWidth=2;" edge="1" parent="1">
          <mxGeometry width="50" height="50" relative="1" as="geometry">
            <mxPoint x="160" y="725" as="sourcePoint" />
            <mxPoint x="720" y="725" as="targetPoint" />
          </mxGeometry>
        </mxCell>
        <mxCell id="Cvs36pEffpM8yTneI7ga-39" value="" style="endArrow=none;html=1;rounded=0;strokeWidth=2;" edge="1" parent="1">
          <mxGeometry width="50" height="50" relative="1" as="geometry">
            <mxPoint x="200" y="745" as="sourcePoint" />
            <mxPoint x="200" y="705" as="targetPoint" />
          </mxGeometry>
        </mxCell>
        <mxCell id="Cvs36pEffpM8yTneI7ga-40" value="&lt;font style=&quot;font-size: 14px;&quot;&gt;stage 1&lt;/font&gt;" style="text;html=1;strokeColor=none;fillColor=none;align=center;verticalAlign=middle;whiteSpace=wrap;rounded=0;" vertex="1" parent="1">
          <mxGeometry x="280" y="685" width="60" height="40" as="geometry" />
        </mxCell>
        <mxCell id="Cvs36pEffpM8yTneI7ga-41" value="" style="endArrow=classic;html=1;rounded=0;" edge="1" parent="1">
          <mxGeometry width="50" height="50" relative="1" as="geometry">
            <mxPoint x="280" y="705" as="sourcePoint" />
            <mxPoint x="205" y="705" as="targetPoint" />
          </mxGeometry>
        </mxCell>
        <mxCell id="Cvs36pEffpM8yTneI7ga-42" value="" style="endArrow=classic;html=1;rounded=0;exitX=1;exitY=0.5;exitDx=0;exitDy=0;" edge="1" parent="1" source="Cvs36pEffpM8yTneI7ga-40">
          <mxGeometry width="50" height="50" relative="1" as="geometry">
            <mxPoint x="375" y="695" as="sourcePoint" />
            <mxPoint x="415" y="705" as="targetPoint" />
          </mxGeometry>
        </mxCell>
        <mxCell id="Cvs36pEffpM8yTneI7ga-43" value="" style="endArrow=none;html=1;rounded=0;strokeWidth=6;strokeColor=#7EA6E0;" edge="1" parent="1">
          <mxGeometry width="50" height="50" relative="1" as="geometry">
            <mxPoint x="215" y="755" as="sourcePoint" />
            <mxPoint x="215" y="695" as="targetPoint" />
            <Array as="points">
              <mxPoint x="205" y="755" />
              <mxPoint x="205" y="695" />
            </Array>
          </mxGeometry>
        </mxCell>
        <mxCell id="Cvs36pEffpM8yTneI7ga-44" value="" style="endArrow=none;html=1;rounded=0;strokeWidth=2;" edge="1" parent="1">
          <mxGeometry width="50" height="50" relative="1" as="geometry">
            <mxPoint x="420" y="745" as="sourcePoint" />
            <mxPoint x="420" y="705" as="targetPoint" />
          </mxGeometry>
        </mxCell>
        <mxCell id="Cvs36pEffpM8yTneI7ga-45" value="" style="endArrow=none;html=1;rounded=0;strokeWidth=6;strokeColor=#7EA6E0;" edge="1" parent="1">
          <mxGeometry width="50" height="50" relative="1" as="geometry">
            <mxPoint x="405" y="755" as="sourcePoint" />
            <mxPoint x="405" y="695" as="targetPoint" />
            <Array as="points">
              <mxPoint x="415" y="755" />
              <mxPoint x="415" y="695" />
            </Array>
          </mxGeometry>
        </mxCell>
        <mxCell id="Cvs36pEffpM8yTneI7ga-46" value="&lt;font style=&quot;font-size: 14px;&quot;&gt;stage 2&lt;/font&gt;" style="text;html=1;strokeColor=none;fillColor=none;align=center;verticalAlign=middle;whiteSpace=wrap;rounded=0;" vertex="1" parent="1">
          <mxGeometry x="450" y="685" width="60" height="40" as="geometry" />
        </mxCell>
        <mxCell id="Cvs36pEffpM8yTneI7ga-47" value="" style="endArrow=classic;html=1;rounded=0;" edge="1" parent="1">
          <mxGeometry width="50" height="50" relative="1" as="geometry">
            <mxPoint x="450" y="705" as="sourcePoint" />
            <mxPoint x="425" y="705" as="targetPoint" />
          </mxGeometry>
        </mxCell>
        <mxCell id="Cvs36pEffpM8yTneI7ga-48" value="" style="endArrow=none;html=1;rounded=0;strokeWidth=6;strokeColor=#FF0000;" edge="1" parent="1">
          <mxGeometry width="50" height="50" relative="1" as="geometry">
            <mxPoint x="435" y="755" as="sourcePoint" />
            <mxPoint x="435" y="695" as="targetPoint" />
            <Array as="points">
              <mxPoint x="425" y="755" />
              <mxPoint x="425" y="695" />
            </Array>
          </mxGeometry>
        </mxCell>
        <mxCell id="Cvs36pEffpM8yTneI7ga-49" value="" style="endArrow=classic;html=1;rounded=0;" edge="1" parent="1">
          <mxGeometry width="50" height="50" relative="1" as="geometry">
            <mxPoint x="510" y="705" as="sourcePoint" />
            <mxPoint x="535" y="705" as="targetPoint" />
          </mxGeometry>
        </mxCell>
        <mxCell id="Cvs36pEffpM8yTneI7ga-50" value="" style="endArrow=none;html=1;rounded=0;strokeWidth=6;strokeColor=#FF0000;" edge="1" parent="1">
          <mxGeometry width="50" height="50" relative="1" as="geometry">
            <mxPoint x="525" y="755" as="sourcePoint" />
            <mxPoint x="525" y="695" as="targetPoint" />
            <Array as="points">
              <mxPoint x="535" y="755" />
              <mxPoint x="535" y="695" />
            </Array>
          </mxGeometry>
        </mxCell>
        <mxCell id="Cvs36pEffpM8yTneI7ga-51" value="" style="endArrow=none;html=1;rounded=0;strokeWidth=2;" edge="1" parent="1">
          <mxGeometry width="50" height="50" relative="1" as="geometry">
            <mxPoint x="540" y="745" as="sourcePoint" />
            <mxPoint x="540" y="705" as="targetPoint" />
          </mxGeometry>
        </mxCell>
        <mxCell id="Cvs36pEffpM8yTneI7ga-52" value="&lt;font style=&quot;font-size: 14px;&quot;&gt;interval&lt;/font&gt;" style="text;html=1;strokeColor=none;fillColor=none;align=center;verticalAlign=middle;whiteSpace=wrap;rounded=0;" vertex="1" parent="1">
          <mxGeometry x="535" y="685" width="80" height="40" as="geometry" />
        </mxCell>
        <mxCell id="Cvs36pEffpM8yTneI7ga-53" value="" style="endArrow=none;html=1;rounded=0;strokeWidth=6;strokeColor=#7EA6E0;" edge="1" parent="1">
          <mxGeometry width="50" height="50" relative="1" as="geometry">
            <mxPoint x="555" y="755" as="sourcePoint" />
            <mxPoint x="555" y="695" as="targetPoint" />
            <Array as="points">
              <mxPoint x="545" y="755" />
              <mxPoint x="545" y="695" />
            </Array>
          </mxGeometry>
        </mxCell>
        <mxCell id="Cvs36pEffpM8yTneI7ga-55" value="" style="endArrow=none;html=1;rounded=0;strokeWidth=2;" edge="1" parent="1">
          <mxGeometry width="50" height="50" relative="1" as="geometry">
            <mxPoint x="610" y="745" as="sourcePoint" />
            <mxPoint x="610" y="705" as="targetPoint" />
          </mxGeometry>
        </mxCell>
        <mxCell id="Cvs36pEffpM8yTneI7ga-56" value="" style="endArrow=classic;html=1;rounded=0;" edge="1" parent="1">
          <mxGeometry width="50" height="50" relative="1" as="geometry">
            <mxPoint x="680" y="480" as="sourcePoint" />
            <mxPoint x="720" y="480" as="targetPoint" />
          </mxGeometry>
        </mxCell>
        <mxCell id="Cvs36pEffpM8yTneI7ga-57" value="&lt;font style=&quot;font-size: 14px;&quot;&gt;stage 1&lt;/font&gt;" style="text;html=1;strokeColor=none;fillColor=none;align=center;verticalAlign=middle;whiteSpace=wrap;rounded=0;" vertex="1" parent="1">
          <mxGeometry x="640" y="685" width="50" height="40" as="geometry" />
        </mxCell>
        <mxCell id="Cvs36pEffpM8yTneI7ga-58" value="" style="endArrow=classic;html=1;rounded=0;" edge="1" parent="1">
          <mxGeometry width="50" height="50" relative="1" as="geometry">
            <mxPoint x="640" y="705" as="sourcePoint" />
            <mxPoint x="610" y="705" as="targetPoint" />
          </mxGeometry>
        </mxCell>
        <mxCell id="Cvs36pEffpM8yTneI7ga-59" value="" style="rounded=0;whiteSpace=wrap;html=1;" vertex="1" parent="1">
          <mxGeometry x="290" y="595" width="450" height="80" as="geometry" />
        </mxCell>
        <mxCell id="Cvs36pEffpM8yTneI7ga-60" value="&lt;span style=&quot;font-size: 14px;&quot;&gt;interval :&amp;nbsp; time break between checkpointing&lt;/span&gt;" style="text;html=1;strokeColor=none;fillColor=none;align=left;verticalAlign=middle;whiteSpace=wrap;rounded=0;" vertex="1" parent="1">
          <mxGeometry x="295" y="605" width="280" height="20" as="geometry" />
        </mxCell>
        <mxCell id="Cvs36pEffpM8yTneI7ga-61" value="&lt;span style=&quot;font-size: 14px;&quot;&gt;stage 1 :&amp;nbsp; copy dirty memory&lt;br&gt;&lt;/span&gt;" style="text;html=1;strokeColor=none;fillColor=none;align=left;verticalAlign=middle;whiteSpace=wrap;rounded=0;" vertex="1" parent="1">
          <mxGeometry x="295" y="625" width="280" height="20" as="geometry" />
        </mxCell>
        <mxCell id="Cvs36pEffpM8yTneI7ga-62" value="" style="endArrow=none;html=1;rounded=0;strokeWidth=3;strokeColor=#FF0000;" edge="1" parent="1">
          <mxGeometry width="50" height="50" relative="1" as="geometry">
            <mxPoint x="610" y="625" as="sourcePoint" />
            <mxPoint x="610" y="605" as="targetPoint" />
            <Array as="points">
              <mxPoint x="600" y="625" />
              <mxPoint x="600" y="605" />
            </Array>
          </mxGeometry>
        </mxCell>
        <mxCell id="Cvs36pEffpM8yTneI7ga-63" value="" style="endArrow=none;html=1;rounded=0;strokeWidth=3;strokeColor=#FF0000;" edge="1" parent="1">
          <mxGeometry width="50" height="50" relative="1" as="geometry">
            <mxPoint x="615" y="625" as="sourcePoint" />
            <mxPoint x="615" y="605" as="targetPoint" />
            <Array as="points">
              <mxPoint x="625" y="625" />
              <mxPoint x="625" y="605" />
            </Array>
          </mxGeometry>
        </mxCell>
        <mxCell id="Cvs36pEffpM8yTneI7ga-64" value="&lt;span style=&quot;font-size: 14px;&quot;&gt;:&amp;nbsp; VM paused&lt;/span&gt;" style="text;html=1;strokeColor=none;fillColor=none;align=left;verticalAlign=middle;whiteSpace=wrap;rounded=0;" vertex="1" parent="1">
          <mxGeometry x="630" y="595" width="90" height="40" as="geometry" />
        </mxCell>
        <mxCell id="Cvs36pEffpM8yTneI7ga-65" value="" style="endArrow=none;html=1;rounded=0;strokeWidth=3;strokeColor=#7EA6E0;" edge="1" parent="1">
          <mxGeometry width="50" height="50" relative="1" as="geometry">
            <mxPoint x="610" y="665" as="sourcePoint" />
            <mxPoint x="610" y="645" as="targetPoint" />
            <Array as="points">
              <mxPoint x="600" y="665" />
              <mxPoint x="600" y="645" />
            </Array>
          </mxGeometry>
        </mxCell>
        <mxCell id="Cvs36pEffpM8yTneI7ga-66" value="" style="endArrow=none;html=1;rounded=0;strokeWidth=3;strokeColor=#7EA6E0;" edge="1" parent="1">
          <mxGeometry width="50" height="50" relative="1" as="geometry">
            <mxPoint x="615" y="665" as="sourcePoint" />
            <mxPoint x="615" y="645" as="targetPoint" />
            <Array as="points">
              <mxPoint x="625" y="665" />
              <mxPoint x="625" y="645" />
            </Array>
          </mxGeometry>
        </mxCell>
        <mxCell id="Cvs36pEffpM8yTneI7ga-67" value="&lt;span style=&quot;font-size: 14px;&quot;&gt;:&amp;nbsp; VM running&lt;/span&gt;" style="text;html=1;strokeColor=none;fillColor=none;align=left;verticalAlign=middle;whiteSpace=wrap;rounded=0;" vertex="1" parent="1">
          <mxGeometry x="630" y="635" width="90" height="40" as="geometry" />
        </mxCell>
        <mxCell id="Cvs36pEffpM8yTneI7ga-70" value="&lt;span style=&quot;font-size: 14px;&quot;&gt;stage 2 :&amp;nbsp; sync memory and CPU states&lt;br&gt;&lt;/span&gt;" style="text;html=1;strokeColor=none;fillColor=none;align=left;verticalAlign=middle;whiteSpace=wrap;rounded=0;" vertex="1" parent="1">
          <mxGeometry x="295" y="645" width="280" height="20" as="geometry" />
        </mxCell>
        <mxCell id="Cvs36pEffpM8yTneI7ga-71" value="" style="endArrow=classic;html=1;rounded=0;" edge="1" parent="1" source="Cvs36pEffpM8yTneI7ga-57">
          <mxGeometry width="50" height="50" relative="1" as="geometry">
            <mxPoint x="700" y="705" as="sourcePoint" />
            <mxPoint x="720" y="705" as="targetPoint" />
          </mxGeometry>
        </mxCell>
      </root>
    </mxGraphModel>
  </diagram>
</mxfile>
